<svg width="168" height="56" viewBox="0 0 168 56" fill="none" xmlns="http://www.w3.org/2000/svg">
<g clip-path="url(#clip0)">
<path d="M154.622 0.000182H13.386C12.8712 0.000182 12.3626 0.000182 11.8491 0.002982C11.4193 0.005782 10.9929 0.013916 10.559 0.020762C9.61624 0.0318245 8.67574 0.114529 7.74562 0.268156C6.81682 0.425128 5.91711 0.721064 5.07692 1.14596C4.23776 1.57444 3.471 2.13122 2.80445 2.79608C2.1344 3.45907 1.57586 4.2254 1.15031 5.06561C0.723586 5.90413 0.427694 6.8027 0.272854 7.73025C0.116542 8.65664 0.0324285 9.59371 0.0212695 10.5331C0.00824107 10.9623 0.00686522 11.393 0 11.8223V44.1822C0.00686522 44.6169 0.00824107 45.038 0.0212695 45.4729C0.0324319 46.4122 0.116545 47.3492 0.272854 48.2755C0.427266 49.2036 0.723176 50.1027 1.15031 50.9416C1.57567 51.779 2.13428 52.5423 2.80445 53.2016C3.46847 53.8694 4.23573 54.4266 5.07692 54.8518C5.9171 55.2778 6.81671 55.5755 7.74562 55.7349C8.67589 55.8873 9.6163 55.97 10.559 55.9824C10.9929 55.9919 11.4193 55.9974 11.8491 55.9974C12.3625 56.0002 12.8712 56.0002 13.386 56.0002H154.622C155.126 56.0002 155.639 56.0002 156.143 55.9974C156.571 55.9974 157.01 55.9919 157.438 55.9824C158.379 55.9707 159.317 55.8879 160.246 55.7349C161.177 55.5744 162.08 55.2767 162.925 54.8518C163.765 54.4263 164.531 53.8692 165.195 53.2016C165.863 52.5397 166.423 51.777 166.854 50.9416C167.278 50.1021 167.571 49.2031 167.723 48.2755C167.88 47.3491 167.967 46.4123 167.984 45.4729C167.989 45.038 167.989 44.6169 167.989 44.1822C168 43.6736 168 43.1678 168 42.6509V13.3508C168 12.8381 168 12.3295 167.989 11.8223C167.989 11.393 167.989 10.9623 167.984 10.533C167.967 9.59357 167.88 8.65671 167.723 7.7302C167.57 6.80318 167.277 5.90469 166.854 5.06555C165.987 3.38146 164.613 2.01062 162.925 1.14583C162.08 0.721976 161.177 0.426119 160.246 0.26803C159.317 0.113726 158.379 0.0309929 157.438 0.020566C157.01 0.013734 156.571 0.00553 156.143 0.0028C155.639 0 155.126 0 154.622 0V0.000182Z" fill="black"/>
<path d="M11.8559 54.7751C11.4281 54.7751 11.0107 54.7696 10.5863 54.7601C9.70717 54.7487 8.83005 54.6724 7.96219 54.5318C7.15295 54.3928 6.36902 54.1343 5.63624 53.7647C4.91019 53.3982 4.24797 52.9177 3.67495 52.3415C3.09364 51.7721 2.60967 51.1116 2.24223 50.3864C1.87073 49.6564 1.61364 48.874 1.47989 48.0663C1.33546 47.1985 1.25732 46.3209 1.24614 45.4413C1.23724 45.146 1.22559 44.163 1.22559 44.163V11.8222C1.22559 11.8222 1.238 10.8542 1.24621 10.5698C1.25692 9.69157 1.3346 8.81541 1.4786 7.94892C1.61259 7.13905 1.86989 6.35435 2.24158 5.62198C2.60768 4.89722 3.08896 4.2363 3.66677 3.66485C4.24393 3.08797 4.90827 2.60494 5.63556 2.23339C6.36664 1.86503 7.1491 1.60832 7.9567 1.47188C8.82741 1.32987 9.70757 1.25309 10.5898 1.24219L11.8566 1.2251H156.136L157.418 1.24288C158.293 1.25324 159.165 1.32933 160.027 1.4705C160.843 1.60866 161.634 1.86716 162.373 2.23749C163.83 2.98628 165.016 4.17093 165.764 5.6254C166.13 6.35271 166.383 7.13101 166.515 7.93388C166.661 8.80749 166.742 9.69053 166.759 10.576C166.763 10.9725 166.763 11.3983 166.763 11.8222C166.774 12.3472 166.774 12.8469 166.774 13.3507V42.6508C166.774 43.1594 166.774 43.6557 166.763 44.1561C166.763 44.6114 166.763 45.0284 166.758 45.4577C166.741 46.3273 166.661 47.1946 166.518 48.0526C166.387 48.8661 166.131 49.6546 165.76 50.3906C165.39 51.108 164.908 51.7627 164.334 52.3306C163.76 52.9099 163.097 53.3932 162.369 53.7621C161.632 54.1345 160.842 54.3939 160.027 54.5318C159.16 54.6731 158.282 54.7494 157.403 54.7601C156.992 54.7696 156.561 54.7751 156.143 54.7751L154.621 54.7779L11.8559 54.7751Z" fill="white"/>
<path d="M35.0934 27.8455C35.1091 26.6303 35.4328 25.4389 36.0343 24.382C36.6359 23.3251 37.4957 22.4371 38.5339 21.8007C37.8744 20.8614 37.0043 20.0884 35.9928 19.5432C34.9813 18.9979 33.8563 18.6953 32.707 18.6594C30.2554 18.4028 27.8787 20.1223 26.6294 20.1223C25.3559 20.1223 23.4325 18.6849 21.3612 18.7274C20.0214 18.7705 18.7158 19.159 17.5713 19.855C16.4269 20.551 15.4828 21.5307 14.831 22.6988C12.0075 27.5736 14.1136 34.7379 16.8183 38.6784C18.1715 40.6079 19.753 42.7632 21.8224 42.6868C23.8474 42.603 24.6038 41.3991 27.0481 41.3991C29.4698 41.3991 30.1794 42.6868 32.2908 42.6382C34.4637 42.603 35.8328 40.7001 37.1386 38.7523C38.1108 37.3774 38.859 35.8579 39.3554 34.25C38.0929 33.7176 37.0156 32.8264 36.2577 31.6874C35.4998 30.5485 35.0949 29.2123 35.0934 27.8455Z" fill="black"/>
<path d="M31.105 16.0677C32.2898 14.6494 32.8735 12.8264 32.7322 10.9858C30.9221 11.1754 29.2501 12.0381 28.0493 13.402C27.4622 14.0683 27.0125 14.8434 26.726 15.6831C26.4395 16.5228 26.3218 17.4106 26.3795 18.2957C27.2849 18.305 28.1806 18.1093 28.9991 17.7234C29.8176 17.3374 30.5377 16.7713 31.105 16.0677V16.0677Z" fill="black"/>
<path d="M59.388 37.9957H52.7426L51.1467 42.6948H48.332L54.6264 25.3096H57.5508L63.8452 42.6948H60.9825L59.388 37.9957ZM53.4309 35.8274H58.6984L56.1017 28.2012H56.029L53.4309 35.8274Z" fill="black"/>
<path d="M77.439 36.3575C77.439 40.2964 75.3249 42.8271 72.1345 42.8271C71.3263 42.8692 70.5226 42.6836 69.8153 42.2914C69.108 41.8992 68.5258 41.3163 68.1353 40.6095H68.0749V46.8876H65.4658V30.0192H67.9912V32.1274H68.0392C68.4477 31.424 69.0398 30.8441 69.7525 30.4495C70.4651 30.055 71.2718 29.8604 72.0865 29.8866C75.3126 29.8866 77.439 32.4296 77.439 36.3575ZM74.7573 36.3575C74.7573 33.7913 73.4274 32.1042 71.3983 32.1042C69.4048 32.1042 68.0639 33.8269 68.0639 36.3575C68.0639 38.9114 69.4048 40.6218 71.3983 40.6218C73.4274 40.6218 74.7572 38.947 74.7572 36.3575H74.7573Z" fill="black"/>
<path d="M91.4299 36.3575C91.4299 40.2964 89.3151 42.8271 86.1248 42.8271C85.3166 42.8692 84.5128 42.6836 83.8055 42.2914C83.0982 41.8992 82.516 41.3163 82.1255 40.6095H82.0651V46.8876H79.4561V30.0192H81.9815V32.1274H82.0295C82.4379 31.424 83.03 30.8441 83.7427 30.4495C84.4554 30.055 85.262 29.8604 86.0767 29.8866C89.3028 29.8866 91.4299 32.4296 91.4299 36.3575ZM88.7475 36.3575C88.7475 33.7913 87.4176 32.1042 85.3885 32.1042C83.3951 32.1042 82.0542 33.8269 82.0542 36.3575C82.0542 38.9114 83.3951 40.6218 85.3885 40.6218C87.4176 40.6218 88.7475 38.947 88.7475 36.3575V36.3575Z" fill="black"/>
<path d="M100.674 37.8507C100.867 39.5747 102.547 40.7067 104.842 40.7067C107.041 40.7067 108.623 39.5746 108.623 38.0201C108.623 36.6707 107.669 35.8627 105.409 35.309L103.15 34.7662C99.9485 33.9951 98.4623 32.5022 98.4623 30.0795C98.4623 27.0799 101.084 25.0195 104.805 25.0195C108.49 25.0195 111.015 27.0799 111.1 30.0795H108.467C108.309 28.3445 106.871 27.2973 104.769 27.2973C102.667 27.2973 101.229 28.3569 101.229 29.899C101.229 31.1281 102.148 31.8514 104.395 32.405L106.315 32.8754C109.893 33.7189 111.377 35.1518 111.377 37.6947C111.377 40.9472 108.781 42.9843 104.648 42.9843C100.782 42.9843 98.1716 40.9951 98.0029 37.8505L100.674 37.8507Z" fill="black"/>
<path d="M117.012 27.02V30.0196H119.429V32.08H117.012V39.0677C117.012 40.1532 117.496 40.6591 118.558 40.6591C118.845 40.6541 119.131 40.634 119.416 40.5989V42.6469C118.939 42.7359 118.453 42.7763 117.967 42.7672C115.394 42.7672 114.39 41.8034 114.39 39.3452V32.08H112.542V30.0196H114.39V27.02H117.012Z" fill="black"/>
<path d="M120.827 36.3579C120.827 32.3698 123.183 29.8638 126.856 29.8638C130.541 29.8638 132.885 32.3698 132.885 36.3579C132.885 40.3569 130.553 42.852 126.856 42.852C123.159 42.852 120.827 40.3569 120.827 36.3579ZM130.227 36.3579C130.227 33.6222 128.97 32.0075 126.856 32.0075C124.741 32.0075 123.484 33.6345 123.484 36.3579C123.484 39.1046 124.741 40.7069 126.856 40.7069C128.97 40.7069 130.227 39.1046 130.227 36.3579H130.227Z" fill="black"/>
<path d="M135.036 30.0196H137.525V32.177H137.585C137.753 31.5032 138.149 30.9077 138.706 30.4907C139.263 30.0737 139.946 29.8605 140.642 29.887C140.943 29.8859 141.243 29.9185 141.536 29.984V32.4176C141.157 32.302 140.761 32.2489 140.364 32.2604C139.985 32.2451 139.607 32.3117 139.256 32.4558C138.906 32.5998 138.59 32.8178 138.332 33.0949C138.074 33.3719 137.878 33.7014 137.76 34.0608C137.641 34.4201 137.602 34.8008 137.645 35.1766V42.6948H135.036L135.036 30.0196Z" fill="black"/>
<path d="M153.566 38.972C153.215 41.2729 150.968 42.852 148.093 42.852C144.396 42.852 142.101 40.3815 142.101 36.4181C142.101 32.4423 144.408 29.8638 147.984 29.8638C151.5 29.8638 153.712 32.2727 153.712 36.1159V37.0073H144.734V37.1645C144.693 37.631 144.751 38.101 144.906 38.5431C145.061 38.9853 145.308 39.3896 145.631 39.7292C145.955 40.0687 146.347 40.3358 146.782 40.5126C147.217 40.6895 147.684 40.772 148.154 40.7548C148.77 40.8124 149.389 40.67 149.918 40.3488C150.447 40.0276 150.857 39.5447 151.089 38.972L153.566 38.972ZM144.747 35.189H151.101C151.125 34.7695 151.061 34.3498 150.914 33.9561C150.767 33.5624 150.54 33.2033 150.247 32.9012C149.955 32.5991 149.602 32.3606 149.213 32.2007C148.823 32.0408 148.405 31.9629 147.984 31.972C147.559 31.9694 147.138 32.0508 146.744 32.2115C146.351 32.3721 145.994 32.6088 145.693 32.9079C145.392 33.207 145.153 33.5626 144.991 33.9541C144.829 34.3456 144.746 34.7653 144.747 35.189V35.189Z" fill="black"/>
<path d="M53.1049 12.2233C53.6519 12.1842 54.2008 12.2666 54.712 12.4646C55.2232 12.6626 55.6839 12.9713 56.061 13.3684C56.4381 13.7654 56.7221 14.241 56.8925 14.7608C57.063 15.2806 57.1156 15.8316 57.0466 16.3741C57.0466 19.0429 55.6002 20.5769 53.1049 20.5769H50.0791V12.2233H53.1049ZM51.3802 19.3955H52.9596C53.3505 19.4188 53.7416 19.3549 54.1046 19.2085C54.4676 19.062 54.7932 18.8367 55.0579 18.5489C55.3225 18.2611 55.5194 17.9181 55.6344 17.5448C55.7493 17.1716 55.7793 16.7774 55.7222 16.3911C55.7752 16.0064 55.7421 15.6147 55.6254 15.2442C55.5087 14.8736 55.3113 14.5334 55.0473 14.2479C54.7832 13.9624 54.4591 13.7387 54.0982 13.5928C53.7373 13.4468 53.3485 13.3823 52.9596 13.4038H51.3802V19.3955Z" fill="black"/>
<path d="M58.5161 17.4223C58.4763 17.008 58.5238 16.59 58.6556 16.1951C58.7873 15.8002 59.0004 15.4371 59.2811 15.1292C59.5618 14.8212 59.904 14.5751 60.2856 14.4067C60.6673 14.2383 61.08 14.1514 61.4974 14.1514C61.9147 14.1514 62.3274 14.2383 62.7091 14.4067C63.0908 14.5751 63.4329 14.8212 63.7136 15.1292C63.9943 15.4371 64.2074 15.8002 64.3391 16.1951C64.4709 16.59 64.5184 17.008 64.4786 17.4223C64.5191 17.837 64.4722 18.2556 64.3408 18.6511C64.2094 19.0467 63.9965 19.4104 63.7157 19.719C63.4349 20.0276 63.0925 20.2741 62.7105 20.4429C62.3284 20.6116 61.9152 20.6988 61.4974 20.6988C61.0795 20.6988 60.6663 20.6116 60.2842 20.4429C59.9022 20.2741 59.5598 20.0276 59.279 19.719C58.9982 19.4104 58.7853 19.0467 58.6539 18.6511C58.5225 18.2556 58.4756 17.837 58.5161 17.4223V17.4223ZM63.1954 17.4223C63.1954 16.0558 62.5798 15.2567 61.4994 15.2567C60.4149 15.2567 59.8049 16.0558 59.8049 17.4223C59.8049 18.7998 60.415 19.5927 61.4994 19.5927C62.5798 19.5927 63.1954 18.7943 63.1954 17.4223H63.1954Z" fill="black"/>
<path d="M72.405 20.5771H71.1108L69.8042 15.9341H69.7055L68.4044 20.5771H67.1225L65.3799 14.2729H66.6453L67.7778 19.0834H67.871L69.1708 14.2729H70.3677L71.6674 19.0834H71.7661L72.8931 14.2729H74.1407L72.405 20.5771Z" fill="black"/>
<path d="M75.6065 14.2729H76.8075V15.2744H76.9007C77.0589 14.9147 77.3256 14.6132 77.6638 14.4118C78.0019 14.2105 78.3947 14.1194 78.7872 14.1512C79.0948 14.1282 79.4037 14.1744 79.6909 14.2865C79.9782 14.3987 80.2364 14.5738 80.4466 14.799C80.6567 15.0242 80.8134 15.2936 80.9049 15.5874C80.9964 15.8811 81.0205 16.1917 80.9754 16.4959V20.5769H79.7278V16.8084C79.7278 15.7953 79.2863 15.2915 78.3636 15.2915C78.1547 15.2818 77.9463 15.3172 77.7524 15.3954C77.5586 15.4735 77.384 15.5926 77.2407 15.7443C77.0973 15.896 76.9885 16.0769 76.9218 16.2745C76.855 16.4721 76.832 16.6817 76.8541 16.889V20.577H75.6064L75.6065 14.2729Z" fill="black"/>
<path d="M82.9629 11.812H84.2105V20.577H82.9629V11.812Z" fill="black"/>
<path d="M85.9457 17.4224C85.906 17.0081 85.9536 16.5901 86.0853 16.1952C86.2171 15.8003 86.4302 15.4372 86.7109 15.1292C86.9917 14.8212 87.3338 14.5751 87.7155 14.4067C88.0972 14.2384 88.51 14.1514 88.9274 14.1514C89.3447 14.1514 89.7575 14.2384 90.1392 14.4067C90.5209 14.5751 90.863 14.8212 91.1438 15.1292C91.4245 15.4372 91.6376 15.8003 91.7694 16.1952C91.9011 16.5901 91.9487 17.0081 91.909 17.4224C91.9494 17.8371 91.9024 18.2557 91.771 18.6513C91.6396 19.0468 91.4266 19.4105 91.1458 19.7191C90.865 20.0277 90.5225 20.2742 90.1405 20.443C89.7584 20.6117 89.3452 20.6989 88.9274 20.6989C88.5095 20.6989 88.0963 20.6117 87.7142 20.443C87.3321 20.2742 86.9897 20.0277 86.7089 19.7191C86.4281 19.4105 86.2151 19.0468 86.0837 18.6513C85.9523 18.2557 85.9053 17.8371 85.9457 17.4224V17.4224ZM90.625 17.4224C90.625 16.0559 90.0094 15.2568 88.9291 15.2568C87.8446 15.2568 87.2345 16.0559 87.2345 17.4224C87.2345 18.7999 87.8446 19.5928 88.9291 19.5928C90.0094 19.5928 90.625 18.7944 90.625 17.4224H90.625Z" fill="black"/>
<path d="M93.2217 18.7943C93.2217 17.6596 94.069 17.0054 95.573 16.9124L97.2854 16.814V16.2698C97.2854 15.604 96.8439 15.228 95.9911 15.228C95.2947 15.228 94.8121 15.483 94.6736 15.9287H93.4657C93.5932 14.8459 94.6146 14.1514 96.0487 14.1514C97.6336 14.1514 98.5275 14.9382 98.5275 16.2698V20.5771H97.3265V19.6912H97.2278C97.0274 20.009 96.7461 20.2681 96.4125 20.442C96.0789 20.6159 95.705 20.6983 95.3289 20.681C95.0636 20.7085 94.7953 20.6803 94.5415 20.5981C94.2878 20.5159 94.0541 20.3816 93.8555 20.2039C93.657 20.0261 93.498 19.8089 93.3888 19.5661C93.2797 19.3233 93.2227 19.0604 93.2217 18.7943V18.7943ZM97.2854 18.2556V17.7286L95.7416 17.827C94.871 17.8851 94.4762 18.1805 94.4762 18.7362C94.4762 19.3036 94.9697 19.6338 95.6484 19.6338C95.8473 19.6538 96.0482 19.6338 96.2391 19.5749C96.4301 19.516 96.6072 19.4193 96.7599 19.2908C96.9126 19.1622 97.0378 19.0043 97.1281 18.8265C97.2184 18.6486 97.2719 18.4545 97.2854 18.2556V18.2556Z" fill="black"/>
<path d="M100.167 17.4223C100.167 15.4303 101.194 14.1684 102.791 14.1684C103.186 14.1502 103.578 14.2446 103.922 14.4404C104.265 14.6363 104.545 14.9255 104.73 15.2744H104.823V11.812H106.071V20.577H104.875V19.581H104.776C104.578 19.9275 104.288 20.2132 103.938 20.4071C103.588 20.6009 103.191 20.6956 102.791 20.6809C101.183 20.681 100.167 19.4191 100.167 17.4223ZM101.456 17.4223C101.456 18.7594 102.088 19.564 103.145 19.564C104.196 19.564 104.846 18.7478 104.846 17.4278C104.846 16.1139 104.19 15.2861 103.145 15.2861C102.095 15.2861 101.456 16.0961 101.456 17.4223H101.456Z" fill="black"/>
<path d="M111.233 17.4223C111.193 17.008 111.241 16.59 111.372 16.1951C111.504 15.8002 111.717 15.4371 111.998 15.1292C112.279 14.8212 112.621 14.5751 113.002 14.4067C113.384 14.2383 113.797 14.1514 114.214 14.1514C114.631 14.1514 115.044 14.2383 115.426 14.4067C115.808 14.5751 116.15 14.8212 116.43 15.1292C116.711 15.4371 116.924 15.8002 117.056 16.1951C117.188 16.59 117.235 17.008 117.195 17.4223C117.236 17.837 117.189 18.2556 117.058 18.6511C116.926 19.0467 116.713 19.4104 116.432 19.719C116.152 20.0276 115.809 20.2741 115.427 20.4429C115.045 20.6116 114.632 20.6988 114.214 20.6988C113.796 20.6988 113.383 20.6116 113.001 20.4429C112.619 20.2741 112.277 20.0276 111.996 19.719C111.715 19.4104 111.502 19.0467 111.371 18.6511C111.239 18.2556 111.192 17.837 111.233 17.4223V17.4223ZM115.912 17.4223C115.912 16.0558 115.297 15.2567 114.216 15.2567C113.132 15.2567 112.522 16.0558 112.522 17.4223C112.522 18.7998 113.132 19.5927 114.216 19.5927C115.297 19.5927 115.912 18.7943 115.912 17.4223Z" fill="black"/>
<path d="M118.869 14.2729H120.07V15.2744H120.163C120.322 14.9147 120.588 14.6132 120.926 14.4118C121.265 14.2105 121.657 14.1194 122.05 14.1512C122.358 14.1282 122.666 14.1744 122.954 14.2865C123.241 14.3987 123.499 14.5738 123.709 14.799C123.919 15.0242 124.076 15.2936 124.168 15.5874C124.259 15.8811 124.283 16.1917 124.238 16.4959V20.5769H122.99V16.8084C122.99 15.7953 122.549 15.2915 121.626 15.2915C121.417 15.2818 121.209 15.3172 121.015 15.3954C120.821 15.4735 120.647 15.5926 120.503 15.7443C120.36 15.896 120.251 16.0769 120.184 16.2745C120.118 16.4721 120.095 16.6817 120.117 16.889V20.577H118.869V14.2729Z" fill="black"/>
<path d="M131.288 12.7036V14.3019H132.657V15.3498H131.288V18.5914C131.288 19.2518 131.561 19.5409 132.182 19.5409C132.341 19.5404 132.5 19.5308 132.657 19.5122V20.5485C132.433 20.5885 132.206 20.6098 131.979 20.6121C130.591 20.6121 130.039 20.1254 130.039 18.91V15.3498H129.035V14.3018H130.039V12.7036H131.288Z" fill="black"/>
<path d="M134.362 11.812H135.599V15.286H135.698C135.864 14.923 136.138 14.6198 136.483 14.4177C136.827 14.2156 137.227 14.1245 137.625 14.1567C137.931 14.1401 138.237 14.1911 138.521 14.3059C138.805 14.4208 139.06 14.5967 139.268 14.8212C139.476 15.0457 139.632 15.3132 139.724 15.6046C139.817 15.8959 139.843 16.2041 139.802 16.5069V20.5771H138.554V16.8139C138.554 15.8069 138.083 15.297 137.202 15.297C136.987 15.2794 136.772 15.3088 136.57 15.3831C136.368 15.4574 136.185 15.5747 136.033 15.727C135.882 15.8792 135.765 16.0626 135.692 16.2644C135.619 16.4662 135.591 16.6815 135.61 16.8952V20.577H134.362L134.362 11.812Z" fill="black"/>
<path d="M147.077 18.8751C146.908 19.4513 146.54 19.9496 146.04 20.283C145.539 20.6165 144.936 20.7637 144.338 20.6989C143.921 20.7099 143.507 20.6303 143.125 20.4658C142.742 20.3013 142.4 20.0557 142.122 19.7461C141.845 19.4365 141.638 19.0703 141.516 18.673C141.394 18.2756 141.361 17.8566 141.418 17.445C141.362 17.0322 141.396 16.6123 141.518 16.2137C141.639 15.8152 141.845 15.4473 142.121 15.135C142.398 14.8227 142.738 14.5733 143.12 14.4036C143.501 14.2339 143.915 14.1479 144.332 14.1515C146.091 14.1515 147.153 15.3499 147.153 17.3295V17.7636H142.689V17.8333C142.669 18.0647 142.698 18.2975 142.774 18.517C142.85 18.7364 142.971 18.9376 143.13 19.1077C143.288 19.2777 143.481 19.4128 143.695 19.5044C143.909 19.5959 144.139 19.6419 144.372 19.6393C144.671 19.675 144.973 19.6215 145.241 19.4854C145.509 19.3493 145.73 19.1368 145.876 18.8751L147.077 18.8751ZM142.688 16.8435H145.882C145.897 16.6319 145.868 16.4194 145.797 16.2196C145.725 16.0198 145.613 15.8371 145.466 15.6833C145.32 15.5295 145.142 15.408 144.946 15.3265C144.75 15.2451 144.538 15.2055 144.325 15.2104C144.11 15.2077 143.896 15.2481 143.696 15.3292C143.496 15.4103 143.314 15.5305 143.162 15.6827C143.009 15.8349 142.889 16.016 142.807 16.2154C142.726 16.4147 142.686 16.6283 142.689 16.8435H142.688Z" fill="black"/>
</g>
<defs>
<clipPath id="clip0">
<rect width="168" height="56" fill="white"/>
</clipPath>
</defs>
</svg>
