<svg width="269" height="260" viewBox="0 0 269 260" fill="none" xmlns="http://www.w3.org/2000/svg">
<ellipse opacity="0.5" cx="182.5" cy="173.5" rx="86.5" ry="86.5" transform="rotate(180 182.5 173.5)" fill="#E1E4E5" fill-opacity="0.9"/>
<ellipse opacity="0.5" cx="86.5" cy="173.5" rx="86.5" ry="86.5" transform="rotate(180 86.5 173.5)" fill="#E1E4E5" fill-opacity="0.9"/>
<ellipse opacity="0.5" cx="134.5" cy="86.5" rx="86.5" ry="86.5" transform="rotate(180 134.5 86.5)" fill="#E1E4E5" fill-opacity="0.9"/>
<path fill-rule="evenodd" clip-rule="evenodd" d="M134.925 115.865C146.962 115.337 165.694 148.637 159.651 158.582C153.609 168.527 114.784 168.677 110.198 158.582C105.612 148.486 122.888 116.392 134.925 115.865ZM153.031 156.652C153.554 156.652 153.9 156.108 153.678 155.634L141.225 129.031C140.96 128.464 140.145 128.488 139.913 129.069L136.944 136.508C136.854 136.734 136.885 136.991 137.027 137.189L150.725 156.353C150.859 156.541 151.076 156.652 151.307 156.652H153.031ZM132.324 131.924C130.982 130.057 128.125 130.333 127.164 132.421L117.994 152.336C117.079 154.324 118.531 156.591 120.719 156.591H150.07L132.324 131.924Z" fill="#70B8DF"/>
<path d="M37.4158 179.87C37.4158 179.7 37.4708 179.56 37.5808 179.45C37.7008 179.34 37.8408 179.285 38.0008 179.285C38.1708 179.285 38.3108 179.34 38.4208 179.45C38.5308 179.56 38.5858 179.7 38.5858 179.87V190.415C38.5858 190.575 38.5308 190.715 38.4208 190.835C38.3108 190.945 38.1708 191 38.0008 191C37.8408 191 37.7008 190.945 37.5808 190.835C37.4708 190.715 37.4158 190.575 37.4158 190.415V185.6H30.0958V190.415C30.0958 190.575 30.0408 190.715 29.9308 190.835C29.8208 190.945 29.6808 191 29.5108 191C29.3508 191 29.2108 190.945 29.0908 190.835C28.9808 190.715 28.9258 190.575 28.9258 190.415V179.87C28.9258 179.7 28.9808 179.56 29.0908 179.45C29.2108 179.34 29.3508 179.285 29.5108 179.285C29.6808 179.285 29.8208 179.34 29.9308 179.45C30.0408 179.56 30.0958 179.7 30.0958 179.87V184.55H37.4158V179.87ZM44.927 182.72C45.667 182.72 46.322 182.895 46.892 183.245C47.462 183.585 47.902 184.06 48.212 184.67C48.532 185.28 48.692 185.975 48.692 186.755C48.692 186.915 48.642 187.045 48.542 187.145C48.442 187.235 48.312 187.28 48.152 187.28H42.092C42.172 188.1 42.492 188.765 43.052 189.275C43.612 189.785 44.312 190.04 45.152 190.04C45.512 190.04 45.872 189.98 46.232 189.86C46.602 189.73 46.897 189.57 47.117 189.38C47.247 189.28 47.382 189.23 47.522 189.23C47.632 189.23 47.742 189.27 47.852 189.35C47.982 189.47 48.047 189.605 48.047 189.755C48.047 189.885 47.992 190 47.882 190.1C47.552 190.38 47.132 190.615 46.622 190.805C46.112 190.985 45.622 191.075 45.152 191.075C44.352 191.075 43.637 190.9 43.007 190.55C42.377 190.19 41.882 189.695 41.522 189.065C41.172 188.425 40.997 187.705 40.997 186.905C40.997 186.095 41.162 185.375 41.492 184.745C41.832 184.105 42.297 183.61 42.887 183.26C43.487 182.9 44.167 182.72 44.927 182.72ZM44.927 183.755C44.167 183.755 43.537 183.99 43.037 184.46C42.537 184.93 42.232 185.55 42.122 186.32H47.612C47.532 185.55 47.252 184.93 46.772 184.46C46.292 183.99 45.677 183.755 44.927 183.755ZM54.0879 182.72C54.8679 182.72 55.5729 182.905 56.2029 183.275C56.8429 183.635 57.3429 184.135 57.7029 184.775C58.0729 185.415 58.2579 186.125 58.2579 186.905V190.43C58.2579 190.59 58.2029 190.725 58.0929 190.835C57.9829 190.945 57.8429 191 57.6729 191C57.5029 191 57.3629 190.95 57.2529 190.85C57.1429 190.74 57.0879 190.6 57.0879 190.43V189.53C56.7379 190.01 56.2929 190.39 55.7529 190.67C55.2129 190.94 54.6179 191.075 53.9679 191.075C53.2079 191.075 52.5179 190.895 51.8979 190.535C51.2879 190.165 50.8029 189.665 50.4429 189.035C50.0929 188.395 49.9179 187.685 49.9179 186.905C49.9179 186.125 50.0979 185.415 50.4579 184.775C50.8279 184.135 51.3279 183.635 51.9579 183.275C52.5979 182.905 53.3079 182.72 54.0879 182.72ZM54.0879 190.025C54.6579 190.025 55.1729 189.89 55.6329 189.62C56.0929 189.35 56.4529 188.98 56.7129 188.51C56.9829 188.03 57.1179 187.495 57.1179 186.905C57.1179 186.315 56.9829 185.785 56.7129 185.315C56.4529 184.835 56.0929 184.46 55.6329 184.19C55.1729 183.91 54.6579 183.77 54.0879 183.77C53.5179 183.77 52.9979 183.91 52.5279 184.19C52.0679 184.46 51.7029 184.835 51.4329 185.315C51.1729 185.785 51.0429 186.315 51.0429 186.905C51.0429 187.495 51.1729 188.03 51.4329 188.51C51.7029 188.98 52.0679 189.35 52.5279 189.62C52.9979 189.89 53.5179 190.025 54.0879 190.025ZM60.2043 179.855C60.2043 179.685 60.2593 179.55 60.3693 179.45C60.4793 179.34 60.6143 179.285 60.7743 179.285C60.9443 179.285 61.0793 179.34 61.1793 179.45C61.2893 179.55 61.3443 179.685 61.3443 179.855V188.405C61.3443 188.835 61.4293 189.185 61.5993 189.455C61.7793 189.725 62.0043 189.86 62.2743 189.86H62.6493C62.7993 189.86 62.9193 189.915 63.0093 190.025C63.0993 190.125 63.1443 190.26 63.1443 190.43C63.1443 190.6 63.0793 190.74 62.9493 190.85C62.8293 190.95 62.6693 191 62.4693 191H62.2743C61.6643 191 61.1643 190.76 60.7743 190.28C60.3943 189.79 60.2043 189.165 60.2043 188.405V179.855ZM68.3527 189.845C68.5127 189.845 68.6427 189.9 68.7427 190.01C68.8427 190.12 68.8927 190.26 68.8927 190.43C68.8927 190.59 68.8327 190.725 68.7127 190.835C68.5927 190.945 68.4427 191 68.2627 191H67.9477C67.4177 191 66.9427 190.875 66.5227 190.625C66.1027 190.365 65.7727 190.02 65.5327 189.59C65.3027 189.15 65.1877 188.655 65.1877 188.105V184.1H64.2127C64.0527 184.1 63.9227 184.055 63.8227 183.965C63.7327 183.865 63.6877 183.745 63.6877 183.605C63.6877 183.455 63.7327 183.335 63.8227 183.245C63.9227 183.145 64.0527 183.095 64.2127 183.095H65.1877V180.77C65.1877 180.6 65.2377 180.46 65.3377 180.35C65.4477 180.24 65.5877 180.185 65.7577 180.185C65.9277 180.185 66.0677 180.24 66.1777 180.35C66.2877 180.46 66.3427 180.6 66.3427 180.77V183.095H68.0377C68.1977 183.095 68.3227 183.145 68.4127 183.245C68.5127 183.335 68.5627 183.455 68.5627 183.605C68.5627 183.745 68.5127 183.865 68.4127 183.965C68.3227 184.055 68.1977 184.1 68.0377 184.1H66.3427V188.105C66.3427 188.615 66.4927 189.035 66.7927 189.365C67.0927 189.685 67.4777 189.845 67.9477 189.845H68.3527ZM74.6579 182.705C75.3679 182.705 76.0029 182.855 76.5629 183.155C77.1329 183.455 77.5779 183.895 77.8979 184.475C78.2179 185.045 78.3779 185.73 78.3779 186.53V190.43C78.3779 190.59 78.3229 190.725 78.2129 190.835C78.1029 190.945 77.9679 191 77.8079 191C77.6379 191 77.4979 190.945 77.3879 190.835C77.2779 190.725 77.2229 190.59 77.2229 190.43V186.53C77.2229 185.64 76.9729 184.965 76.4729 184.505C75.9829 184.035 75.3379 183.8 74.5379 183.8C74.0479 183.8 73.6029 183.895 73.2029 184.085C72.8129 184.275 72.5029 184.54 72.2729 184.88C72.0429 185.21 71.9279 185.58 71.9279 185.99V190.43C71.9279 190.6 71.8729 190.74 71.7629 190.85C71.6629 190.95 71.5279 191 71.3579 191C71.1879 191 71.0479 190.95 70.9379 190.85C70.8279 190.74 70.7729 190.6 70.7729 190.43V179.87C70.7729 179.7 70.8279 179.56 70.9379 179.45C71.0479 179.34 71.1879 179.285 71.3579 179.285C71.5279 179.285 71.6629 179.34 71.7629 179.45C71.8729 179.56 71.9279 179.7 71.9279 179.87V183.89C72.2579 183.52 72.6579 183.23 73.1279 183.02C73.5979 182.81 74.1079 182.705 74.6579 182.705Z" fill="#70B8DF"/>
<path d="M110.361 57.175C110.401 57.245 110.421 57.325 110.421 57.415C110.421 57.575 110.361 57.715 110.241 57.835C110.131 57.945 109.996 58 109.836 58C109.576 58 109.391 57.88 109.281 57.64L108.276 55.21H102.471L101.466 57.64C101.386 57.88 101.206 58 100.926 58C100.756 58 100.616 57.945 100.506 57.835C100.406 57.715 100.356 57.575 100.356 57.415C100.356 57.315 100.371 57.23 100.401 57.16L104.811 46.69C104.921 46.42 105.111 46.285 105.381 46.285C105.651 46.285 105.836 46.42 105.936 46.69L110.361 57.175ZM107.871 54.205L105.381 48.19L102.891 54.205H107.871ZM115.185 49.72C116.435 49.72 117.45 50.2 118.23 51.16C118.31 51.25 118.35 51.355 118.35 51.475C118.35 51.635 118.265 51.775 118.095 51.895C118.005 51.955 117.91 51.985 117.81 51.985C117.66 51.985 117.515 51.91 117.375 51.76C117.075 51.43 116.745 51.185 116.385 51.025C116.025 50.855 115.625 50.77 115.185 50.77C114.635 50.77 114.145 50.905 113.715 51.175C113.285 51.435 112.95 51.805 112.71 52.285C112.48 52.765 112.365 53.305 112.365 53.905C112.365 54.495 112.49 55.03 112.74 55.51C112.99 55.98 113.34 56.35 113.79 56.62C114.24 56.89 114.755 57.025 115.335 57.025C116.135 57.025 116.78 56.81 117.27 56.38C117.4 56.27 117.535 56.215 117.675 56.215C117.795 56.215 117.905 56.255 118.005 56.335C118.145 56.455 118.215 56.59 118.215 56.74C118.215 56.87 118.165 56.98 118.065 57.07C117.345 57.74 116.435 58.075 115.335 58.075C114.555 58.075 113.855 57.895 113.235 57.535C112.615 57.165 112.125 56.665 111.765 56.035C111.415 55.395 111.24 54.685 111.24 53.905C111.24 53.105 111.41 52.39 111.75 51.76C112.09 51.12 112.56 50.62 113.16 50.26C113.76 49.9 114.435 49.72 115.185 49.72ZM124.225 56.845C124.385 56.845 124.515 56.9 124.615 57.01C124.715 57.12 124.765 57.26 124.765 57.43C124.765 57.59 124.705 57.725 124.585 57.835C124.465 57.945 124.315 58 124.135 58H123.82C123.29 58 122.815 57.875 122.395 57.625C121.975 57.365 121.645 57.02 121.405 56.59C121.175 56.15 121.06 55.655 121.06 55.105V51.1H120.085C119.925 51.1 119.795 51.055 119.695 50.965C119.605 50.865 119.56 50.745 119.56 50.605C119.56 50.455 119.605 50.335 119.695 50.245C119.795 50.145 119.925 50.095 120.085 50.095H121.06V47.77C121.06 47.6 121.11 47.46 121.21 47.35C121.32 47.24 121.46 47.185 121.63 47.185C121.8 47.185 121.94 47.24 122.05 47.35C122.16 47.46 122.215 47.6 122.215 47.77V50.095H123.91C124.07 50.095 124.195 50.145 124.285 50.245C124.385 50.335 124.435 50.455 124.435 50.605C124.435 50.745 124.385 50.865 124.285 50.965C124.195 51.055 124.07 51.1 123.91 51.1H122.215V55.105C122.215 55.615 122.365 56.035 122.665 56.365C122.965 56.685 123.35 56.845 123.82 56.845H124.225ZM126.885 50.38C126.885 50.21 126.94 50.07 127.05 49.96C127.16 49.85 127.3 49.795 127.47 49.795C127.64 49.795 127.775 49.85 127.875 49.96C127.985 50.07 128.04 50.21 128.04 50.38V57.415C128.04 57.585 127.985 57.725 127.875 57.835C127.775 57.945 127.64 58 127.47 58C127.3 58 127.16 57.945 127.05 57.835C126.94 57.725 126.885 57.585 126.885 57.415V50.38ZM127.47 46.6C127.69 46.6 127.88 46.675 128.04 46.825C128.2 46.975 128.28 47.17 128.28 47.41C128.28 47.64 128.2 47.835 128.04 47.995C127.88 48.155 127.685 48.235 127.455 48.235C127.225 48.235 127.03 48.155 126.87 47.995C126.72 47.835 126.645 47.64 126.645 47.41C126.645 47.17 126.725 46.975 126.885 46.825C127.045 46.675 127.24 46.6 127.47 46.6ZM137.371 49.84C137.581 49.94 137.686 50.1 137.686 50.32C137.686 50.38 137.671 50.45 137.641 50.53L134.356 57.61C134.226 57.87 134.036 58 133.786 58C133.546 58 133.366 57.87 133.246 57.61L129.916 50.545C129.886 50.485 129.871 50.415 129.871 50.335C129.871 50.125 129.981 49.965 130.201 49.855C130.271 49.815 130.351 49.795 130.441 49.795C130.541 49.795 130.631 49.82 130.711 49.87C130.801 49.92 130.866 49.995 130.906 50.095L133.786 56.335L136.636 50.095C136.676 49.995 136.741 49.92 136.831 49.87C136.921 49.81 137.021 49.78 137.131 49.78C137.221 49.78 137.301 49.8 137.371 49.84ZM139.512 50.38C139.512 50.21 139.567 50.07 139.677 49.96C139.787 49.85 139.927 49.795 140.097 49.795C140.267 49.795 140.402 49.85 140.502 49.96C140.612 50.07 140.667 50.21 140.667 50.38V57.415C140.667 57.585 140.612 57.725 140.502 57.835C140.402 57.945 140.267 58 140.097 58C139.927 58 139.787 57.945 139.677 57.835C139.567 57.725 139.512 57.585 139.512 57.415V50.38ZM140.097 46.6C140.317 46.6 140.507 46.675 140.667 46.825C140.827 46.975 140.907 47.17 140.907 47.41C140.907 47.64 140.827 47.835 140.667 47.995C140.507 48.155 140.312 48.235 140.082 48.235C139.852 48.235 139.657 48.155 139.497 47.995C139.347 47.835 139.272 47.64 139.272 47.41C139.272 47.17 139.352 46.975 139.512 46.825C139.672 46.675 139.867 46.6 140.097 46.6ZM147.223 56.845C147.383 56.845 147.513 56.9 147.613 57.01C147.713 57.12 147.763 57.26 147.763 57.43C147.763 57.59 147.703 57.725 147.583 57.835C147.463 57.945 147.313 58 147.133 58H146.818C146.288 58 145.813 57.875 145.393 57.625C144.973 57.365 144.643 57.02 144.403 56.59C144.173 56.15 144.058 55.655 144.058 55.105V51.1H143.083C142.923 51.1 142.793 51.055 142.693 50.965C142.603 50.865 142.558 50.745 142.558 50.605C142.558 50.455 142.603 50.335 142.693 50.245C142.793 50.145 142.923 50.095 143.083 50.095H144.058V47.77C144.058 47.6 144.108 47.46 144.208 47.35C144.318 47.24 144.458 47.185 144.628 47.185C144.798 47.185 144.938 47.24 145.048 47.35C145.158 47.46 145.213 47.6 145.213 47.77V50.095H146.908C147.068 50.095 147.193 50.145 147.283 50.245C147.383 50.335 147.433 50.455 147.433 50.605C147.433 50.745 147.383 50.865 147.283 50.965C147.193 51.055 147.068 51.1 146.908 51.1H145.213V55.105C145.213 55.615 145.363 56.035 145.663 56.365C145.963 56.685 146.348 56.845 146.818 56.845H147.223ZM149.883 50.38C149.883 50.21 149.938 50.07 150.048 49.96C150.158 49.85 150.298 49.795 150.468 49.795C150.638 49.795 150.773 49.85 150.873 49.96C150.983 50.07 151.038 50.21 151.038 50.38V57.415C151.038 57.585 150.983 57.725 150.873 57.835C150.773 57.945 150.638 58 150.468 58C150.298 58 150.158 57.945 150.048 57.835C149.938 57.725 149.883 57.585 149.883 57.415V50.38ZM150.468 46.6C150.688 46.6 150.878 46.675 151.038 46.825C151.198 46.975 151.278 47.17 151.278 47.41C151.278 47.64 151.198 47.835 151.038 47.995C150.878 48.155 150.683 48.235 150.453 48.235C150.223 48.235 150.028 48.155 149.868 47.995C149.718 47.835 149.643 47.64 149.643 47.41C149.643 47.17 149.723 46.975 149.883 46.825C150.043 46.675 150.238 46.6 150.468 46.6ZM157.474 49.72C158.214 49.72 158.869 49.895 159.439 50.245C160.009 50.585 160.449 51.06 160.759 51.67C161.079 52.28 161.239 52.975 161.239 53.755C161.239 53.915 161.189 54.045 161.089 54.145C160.989 54.235 160.859 54.28 160.699 54.28H154.639C154.719 55.1 155.039 55.765 155.599 56.275C156.159 56.785 156.859 57.04 157.699 57.04C158.059 57.04 158.419 56.98 158.779 56.86C159.149 56.73 159.444 56.57 159.664 56.38C159.794 56.28 159.929 56.23 160.069 56.23C160.179 56.23 160.289 56.27 160.399 56.35C160.529 56.47 160.594 56.605 160.594 56.755C160.594 56.885 160.539 57 160.429 57.1C160.099 57.38 159.679 57.615 159.169 57.805C158.659 57.985 158.169 58.075 157.699 58.075C156.899 58.075 156.184 57.9 155.554 57.55C154.924 57.19 154.429 56.695 154.069 56.065C153.719 55.425 153.544 54.705 153.544 53.905C153.544 53.095 153.709 52.375 154.039 51.745C154.379 51.105 154.844 50.61 155.434 50.26C156.034 49.9 156.714 49.72 157.474 49.72ZM157.474 50.755C156.714 50.755 156.084 50.99 155.584 51.46C155.084 51.93 154.779 52.55 154.669 53.32H160.159C160.079 52.55 159.799 51.93 159.319 51.46C158.839 50.99 158.224 50.755 157.474 50.755ZM166.028 49.72C166.688 49.72 167.263 49.835 167.753 50.065C168.243 50.285 168.638 50.595 168.938 50.995C169.018 51.125 169.058 51.24 169.058 51.34C169.058 51.51 168.978 51.645 168.818 51.745C168.748 51.795 168.653 51.82 168.533 51.82C168.323 51.82 168.148 51.745 168.008 51.595C167.518 51.035 166.848 50.755 165.998 50.755C165.448 50.755 165.008 50.87 164.678 51.1C164.348 51.32 164.183 51.6 164.183 51.94C164.183 52.3 164.338 52.59 164.648 52.81C164.958 53.02 165.508 53.19 166.298 53.32C167.368 53.5 168.133 53.795 168.593 54.205C169.053 54.605 169.283 55.105 169.283 55.705C169.283 56.165 169.143 56.575 168.863 56.935C168.593 57.295 168.213 57.575 167.723 57.775C167.233 57.975 166.678 58.075 166.058 58.075C165.438 58.075 164.843 57.97 164.273 57.76C163.703 57.55 163.243 57.255 162.893 56.875C162.793 56.755 162.743 56.64 162.743 56.53C162.743 56.36 162.823 56.21 162.983 56.08C163.103 55.99 163.228 55.945 163.358 55.945C163.528 55.945 163.673 56.015 163.793 56.155C164.033 56.435 164.348 56.65 164.738 56.8C165.138 56.95 165.578 57.025 166.058 57.025C166.758 57.025 167.283 56.905 167.633 56.665C167.983 56.425 168.163 56.11 168.173 55.72C168.173 55.36 167.998 55.06 167.648 54.82C167.298 54.58 166.743 54.4 165.983 54.28C165.003 54.12 164.268 53.845 163.778 53.455C163.298 53.055 163.058 52.575 163.058 52.015C163.058 51.285 163.338 50.72 163.898 50.32C164.468 49.92 165.178 49.72 166.028 49.72Z" fill="#70B8DF"/>
<path d="M205.33 178.285C205.49 178.285 205.625 178.34 205.735 178.45C205.845 178.56 205.9 178.7 205.9 178.87V189.415C205.9 189.575 205.845 189.715 205.735 189.835C205.625 189.945 205.49 190 205.33 190C205.16 190 205.015 189.945 204.895 189.835C204.785 189.715 204.73 189.575 204.73 189.415V180.925L200.56 189.445C200.44 189.635 200.27 189.73 200.05 189.73C199.8 189.73 199.62 189.61 199.51 189.37L195.355 181.06V189.415C195.355 189.575 195.3 189.715 195.19 189.835C195.08 189.945 194.94 190 194.77 190C194.61 190 194.47 189.945 194.35 189.835C194.24 189.715 194.185 189.575 194.185 189.415V178.87C194.185 178.7 194.24 178.56 194.35 178.45C194.47 178.34 194.61 178.285 194.77 178.285C195 178.285 195.175 178.385 195.295 178.585L200.095 188.125L204.805 178.585C204.925 178.385 205.1 178.285 205.33 178.285ZM212.492 181.72C213.282 181.72 213.992 181.9 214.622 182.26C215.252 182.62 215.747 183.12 216.107 183.76C216.477 184.4 216.662 185.115 216.662 185.905C216.662 186.695 216.482 187.41 216.122 188.05C215.762 188.68 215.262 189.175 214.622 189.535C213.992 189.895 213.282 190.075 212.492 190.075C211.702 190.075 210.987 189.895 210.347 189.535C209.717 189.175 209.222 188.68 208.862 188.05C208.502 187.41 208.322 186.695 208.322 185.905C208.322 185.115 208.502 184.4 208.862 183.76C209.222 183.12 209.717 182.62 210.347 182.26C210.987 181.9 211.702 181.72 212.492 181.72ZM212.492 182.77C211.922 182.77 211.402 182.905 210.932 183.175C210.472 183.445 210.107 183.82 209.837 184.3C209.577 184.77 209.447 185.305 209.447 185.905C209.447 186.495 209.577 187.03 209.837 187.51C210.107 187.98 210.472 188.35 210.932 188.62C211.402 188.89 211.922 189.025 212.492 189.025C213.072 189.025 213.592 188.89 214.052 188.62C214.512 188.35 214.872 187.98 215.132 187.51C215.392 187.03 215.522 186.495 215.522 185.905C215.522 185.305 215.392 184.77 215.132 184.3C214.872 183.82 214.512 183.445 214.052 183.175C213.592 182.905 213.072 182.77 212.492 182.77ZM222.643 181.72C223.433 181.72 224.143 181.9 224.773 182.26C225.403 182.62 225.898 183.12 226.258 183.76C226.628 184.4 226.813 185.115 226.813 185.905C226.813 186.695 226.633 187.41 226.273 188.05C225.913 188.68 225.413 189.175 224.773 189.535C224.143 189.895 223.433 190.075 222.643 190.075C221.853 190.075 221.138 189.895 220.498 189.535C219.868 189.175 219.373 188.68 219.013 188.05C218.653 187.41 218.473 186.695 218.473 185.905C218.473 185.115 218.653 184.4 219.013 183.76C219.373 183.12 219.868 182.62 220.498 182.26C221.138 181.9 221.853 181.72 222.643 181.72ZM222.643 182.77C222.073 182.77 221.553 182.905 221.083 183.175C220.623 183.445 220.258 183.82 219.988 184.3C219.728 184.77 219.598 185.305 219.598 185.905C219.598 186.495 219.728 187.03 219.988 187.51C220.258 187.98 220.623 188.35 221.083 188.62C221.553 188.89 222.073 189.025 222.643 189.025C223.223 189.025 223.743 188.89 224.203 188.62C224.663 188.35 225.023 187.98 225.283 187.51C225.543 187.03 225.673 186.495 225.673 185.905C225.673 185.305 225.543 184.77 225.283 184.3C225.023 183.82 224.663 183.445 224.203 183.175C223.743 182.905 223.223 182.77 222.643 182.77ZM236.949 182.23C236.959 182.26 236.964 182.305 236.964 182.365V185.89C236.964 186.67 236.779 187.38 236.409 188.02C236.049 188.66 235.549 189.165 234.909 189.535C234.279 189.895 233.574 190.075 232.794 190.075C232.014 190.075 231.304 189.895 230.664 189.535C230.034 189.165 229.534 188.66 229.164 188.02C228.804 187.38 228.624 186.67 228.624 185.89C228.624 185.11 228.799 184.405 229.149 183.775C229.509 183.135 229.994 182.635 230.604 182.275C231.224 181.905 231.914 181.72 232.674 181.72C233.324 181.72 233.919 181.86 234.459 182.14C234.999 182.41 235.444 182.785 235.794 183.265V178.87C235.794 178.7 235.849 178.56 235.959 178.45C236.069 178.34 236.209 178.285 236.379 178.285C236.549 178.285 236.684 178.34 236.784 178.45C236.894 178.56 236.949 178.7 236.949 178.87V182.23ZM232.794 189.025C233.364 189.025 233.879 188.89 234.339 188.62C234.799 188.34 235.159 187.965 235.419 187.495C235.689 187.015 235.824 186.48 235.824 185.89C235.824 185.72 235.819 185.595 235.809 185.515C235.799 185.495 235.794 185.47 235.794 185.44C235.694 184.66 235.364 184.02 234.804 183.52C234.254 183.02 233.584 182.77 232.794 182.77C232.224 182.77 231.704 182.905 231.234 183.175C230.774 183.445 230.409 183.82 230.139 184.3C229.879 184.77 229.749 185.3 229.749 185.89C229.749 186.48 229.879 187.015 230.139 187.495C230.409 187.965 230.774 188.34 231.234 188.62C231.704 188.89 232.224 189.025 232.794 189.025Z" fill="#70B8DF"/>
</svg>
